<svg xmlns="http://www.w3.org/2000/svg" viewBox="0 0 650 128" width="650" height="128" role="img" aria-label="Guard Tech Solutions">
<g>
<path d="M72 9 C72 9 90 17.5 112 20.5 C116.5 21.1 118 23 118 27 L118 60 C118 92 100.5 110.5 72 120.5 C43.5 110.5 26 92 26 60 L26 27 C26 23 27.5 21.1 32 20.5 C54 17.5 72 9 72 9 Z" fill="#F5C518"/>
<path d="M72 18 C72 18 88 25.5 108 28 C110.5 28.3 111.5 29.4 111.5 31.6 L111.5 60 C111.5 88 96 104.5 72 113.5 C48 104.5 32.5 88 32.5 60 L32.5 31.6 C32.5 29.4 33.5 28.3 36 28 C56 25.5 72 18 72 18 Z" fill="none" stroke="#0A0A0A" stroke-width="2.2" opacity="0.85"/>
<g fill="#141414"><circle cx="72" cy="54" r="15"/><path d="M64.5 62 L79.5 62 L84 92 L60 92 Z"/></g>
</g>
<g fill="#141414">
<path d="M528 480Q509 515 473.5 533.5Q438 552 390 552Q307 552 257.0 497.5Q207 443 207 352Q207 255 259.5 200.5Q312 146 404 146Q467 146 510.5 178.0Q554 210 574 270H357V396H729V237Q710 173 664.5 118.0Q619 63 549.0 29.0Q479 -5 391 -5Q287 -5 205.5 40.5Q124 86 78.5 167.0Q33 248 33 352Q33 456 78.5 537.5Q124 619 205.0 664.5Q286 710 390 710Q516 710 602.5 649.0Q689 588 717 480Z" transform="translate(160.00,74.83) scale(0.07000,-0.07000)"/>
<path d="M230 702V282Q230 219 261.0 185.0Q292 151 352 151Q412 151 444.0 185.0Q476 219 476 282V702H647V283Q647 189 607.0 124.0Q567 59 499.5 26.0Q432 -7 349 -7Q266 -7 200.5 25.5Q135 58 97.0 123.5Q59 189 59 283V702Z" transform="translate(214.84,74.83) scale(0.07000,-0.07000)"/>
<path d="M499 124H237L195 0H16L270 702H468L722 0H541ZM455 256 368 513 282 256Z" transform="translate(265.69,74.83) scale(0.07000,-0.07000)"/>
<path d="M420 0 274 265H233V0H62V702H349Q432 702 490.5 673.0Q549 644 578.0 593.5Q607 543 607 481Q607 411 567.5 356.0Q528 301 451 278L613 0ZM233 386H339Q386 386 409.5 409.0Q433 432 433 474Q433 514 409.5 537.0Q386 560 339 560H233Z" transform="translate(318.78,74.83) scale(0.07000,-0.07000)"/>
<path d="M693 351Q693 248 647.5 168.0Q602 88 518.5 44.0Q435 0 325 0H62V702H325Q436 702 519.0 658.0Q602 614 647.5 534.5Q693 455 693 351ZM519 351Q519 448 465.0 502.0Q411 556 314 556H233V148H314Q411 148 465.0 201.0Q519 254 519 351Z" transform="translate(365.92,74.83) scale(0.07000,-0.07000)"/>
<path d="M567 702V565H381V0H210V565H24V702Z" transform="translate(434.65,74.83) scale(0.07000,-0.07000)"/>
<path d="M233 565V423H462V291H233V137H492V0H62V702H492V565Z" transform="translate(477.52,74.83) scale(0.07000,-0.07000)"/>
<path d="M386 710Q511 710 600.0 644.0Q689 578 719 464H531Q510 508 471.5 531.0Q433 554 384 554Q305 554 256.0 499.0Q207 444 207 352Q207 260 256.0 205.0Q305 150 384 150Q433 150 471.5 173.0Q510 196 531 240H719Q689 126 600.0 60.5Q511 -5 386 -5Q284 -5 203.5 40.5Q123 86 78.0 167.0Q33 248 33 352Q33 456 78.0 537.5Q123 619 203.5 664.5Q284 710 386 710Z" transform="translate(516.89,74.83) scale(0.07000,-0.07000)"/>
<path d="M670 702V0H499V289H233V0H62V702H233V427H499V702Z" transform="translate(571.73,74.83) scale(0.07000,-0.07000)"/>
</g>
<g fill="#3A3A3A">
<path d="M58 192H180Q184 147 215.5 118.0Q247 89 304 89Q363 89 396.0 117.5Q429 146 429 191Q429 226 408.5 248.0Q388 270 357.5 282.0Q327 294 273 308Q205 326 162.5 344.5Q120 363 90.0 402.0Q60 441 60 506Q60 566 90.0 611.0Q120 656 174.0 680.0Q228 704 299 704Q400 704 464.5 653.5Q529 603 536 515H410Q407 553 374.0 580.0Q341 607 287 607Q238 607 207.0 582.0Q176 557 176 510Q176 478 195.5 457.5Q215 437 245.0 425.0Q275 413 327 399Q396 380 439.5 361.0Q483 342 513.5 302.5Q544 263 544 197Q544 144 515.5 97.0Q487 50 432.5 21.5Q378 -7 304 -7Q234 -7 178.0 17.5Q122 42 90.0 87.0Q58 132 58 192Z" transform="translate(160.00,102.52) scale(0.01800,-0.01800)"/>
<path d="M37 349Q37 451 84.5 532.0Q132 613 213.5 658.5Q295 704 392 704Q490 704 571.5 658.5Q653 613 700.0 532.0Q747 451 747 349Q747 247 700.0 165.5Q653 84 571.5 38.5Q490 -7 392 -7Q295 -7 213.5 38.5Q132 84 84.5 165.5Q37 247 37 349ZM630 349Q630 426 599.5 484.0Q569 542 515.0 573.0Q461 604 392 604Q323 604 269.0 573.0Q215 542 184.5 484.0Q154 426 154 349Q154 272 184.5 213.5Q215 155 269.0 123.5Q323 92 392 92Q461 92 515.0 123.5Q569 155 599.5 213.5Q630 272 630 349Z" transform="translate(216.45,102.52) scale(0.01800,-0.01800)"/>
<path d="M189 92H424V0H75V695H189Z" transform="translate(276.14,102.52) scale(0.01800,-0.01800)"/>
<path d="M188 695V252Q188 173 229.5 133.0Q271 93 345 93Q420 93 461.5 133.0Q503 173 503 252V695H617V254Q617 169 580.0 110.0Q543 51 481.0 22.0Q419 -7 344 -7Q269 -7 207.5 22.0Q146 51 110.0 110.0Q74 169 74 254V695Z" transform="translate(329.72,102.52) scale(0.01800,-0.01800)"/>
<path d="M524 695V602H339V0H225V602H39V695Z" transform="translate(387.72,102.52) scale(0.01800,-0.01800)"/>
<path d="M189 695V0H75V695Z" transform="translate(443.45,102.52) scale(0.01800,-0.01800)"/>
<path d="M37 349Q37 451 84.5 532.0Q132 613 213.5 658.5Q295 704 392 704Q490 704 571.5 658.5Q653 613 700.0 532.0Q747 451 747 349Q747 247 700.0 165.5Q653 84 571.5 38.5Q490 -7 392 -7Q295 -7 213.5 38.5Q132 84 84.5 165.5Q37 247 37 349ZM630 349Q630 426 599.5 484.0Q569 542 515.0 573.0Q461 604 392 604Q323 604 269.0 573.0Q215 542 184.5 484.0Q154 426 154 349Q154 272 184.5 213.5Q215 155 269.0 123.5Q323 92 392 92Q461 92 515.0 123.5Q569 155 599.5 213.5Q630 272 630 349Z" transform="translate(493.78,102.52) scale(0.01800,-0.01800)"/>
<path d="M646 0H532L189 519V0H75V696H189L532 178V696H646Z" transform="translate(553.47,102.52) scale(0.01800,-0.01800)"/>
<path d="M58 192H180Q184 147 215.5 118.0Q247 89 304 89Q363 89 396.0 117.5Q429 146 429 191Q429 226 408.5 248.0Q388 270 357.5 282.0Q327 294 273 308Q205 326 162.5 344.5Q120 363 90.0 402.0Q60 441 60 506Q60 566 90.0 611.0Q120 656 174.0 680.0Q228 704 299 704Q400 704 464.5 653.5Q529 603 536 515H410Q407 553 374.0 580.0Q341 607 287 607Q238 607 207.0 582.0Q176 557 176 510Q176 478 195.5 457.5Q215 437 245.0 425.0Q275 413 327 399Q396 380 439.5 361.0Q483 342 513.5 302.5Q544 263 544 197Q544 144 515.5 97.0Q487 50 432.5 21.5Q378 -7 304 -7Q234 -7 178.0 17.5Q122 42 90.0 87.0Q58 132 58 192Z" transform="translate(612.03,102.52) scale(0.01800,-0.01800)"/>
</g>
</svg>